<mxfile host="65bd71144e">
    <diagram id="2pp7u9uxocBYb-0FAnhP" name="Page-1">
        <mxGraphModel dx="1114" dy="1008" grid="0" gridSize="10" guides="1" tooltips="1" connect="1" arrows="1" fold="1" page="1" pageScale="1" pageWidth="850" pageHeight="1100" background="#DBDBDB" math="0" shadow="0">
            <root>
                <mxCell id="0"/>
                <mxCell id="1" parent="0"/>
                <mxCell id="3" value="" style="rounded=0;whiteSpace=wrap;html=1;strokeColor=#000000;strokeWidth=5;fillColor=none;" vertex="1" parent="1">
                    <mxGeometry x="10" y="10" width="830" height="1080" as="geometry"/>
                </mxCell>
                <mxCell id="4" value="" style="rounded=0;whiteSpace=wrap;html=1;strokeColor=#000000;strokeWidth=5;fillColor=none;" vertex="1" parent="1">
                    <mxGeometry x="20" y="20" width="810" height="210" as="geometry"/>
                </mxCell>
                <mxCell id="5" value="&lt;font color=&quot;#000000&quot; style=&quot;font-size: 19px;&quot;&gt;menu burger&lt;/font&gt;" style="whiteSpace=wrap;html=1;aspect=fixed;strokeColor=#000000;strokeWidth=5;fillColor=none;" vertex="1" parent="1">
                    <mxGeometry x="40" y="80" width="90" height="90" as="geometry"/>
                </mxCell>
                <mxCell id="6" value="logo" style="rounded=0;whiteSpace=wrap;html=1;strokeColor=#000000;strokeWidth=5;fontSize=19;fontColor=#000000;fillColor=none;" vertex="1" parent="1">
                    <mxGeometry x="330" y="62.5" width="180" height="125" as="geometry"/>
                </mxCell>
                <mxCell id="8" value="panier" style="rounded=0;whiteSpace=wrap;html=1;strokeColor=#000000;strokeWidth=5;fontSize=19;fontColor=#000000;fillColor=none;" vertex="1" parent="1">
                    <mxGeometry x="690" y="100" width="80" height="50" as="geometry"/>
                </mxCell>
                <mxCell id="9" value="recherche" style="rounded=0;whiteSpace=wrap;html=1;strokeColor=#000000;strokeWidth=5;fontSize=19;fontColor=#000000;fillColor=none;" vertex="1" parent="1">
                    <mxGeometry x="590" y="100" width="90" height="50" as="geometry"/>
                </mxCell>
                <mxCell id="10" style="edgeStyle=none;html=1;exitX=0;exitY=0;exitDx=0;exitDy=0;entryX=0;entryY=0.25;entryDx=0;entryDy=0;fontSize=19;fontColor=#000000;" edge="1" parent="1" source="9" target="9">
                    <mxGeometry relative="1" as="geometry"/>
                </mxCell>
                <mxCell id="11" value="offre speciale" style="rounded=0;whiteSpace=wrap;html=1;strokeColor=#000000;strokeWidth=5;fontSize=19;fontColor=#000000;fillColor=none;" vertex="1" parent="1">
                    <mxGeometry x="55" y="260" width="740" height="240" as="geometry"/>
                </mxCell>
                <mxCell id="12" value="produit" style="whiteSpace=wrap;html=1;aspect=fixed;strokeColor=#000000;strokeWidth=5;fontSize=19;fontColor=#000000;fillColor=none;" vertex="1" parent="1">
                    <mxGeometry x="447" y="520" width="196" height="196" as="geometry"/>
                </mxCell>
                <mxCell id="13" value="produit" style="whiteSpace=wrap;html=1;aspect=fixed;strokeColor=#000000;strokeWidth=5;fontSize=19;fontColor=#000000;fillColor=none;" vertex="1" parent="1">
                    <mxGeometry x="138" y="517" width="196" height="196" as="geometry"/>
                </mxCell>
                <mxCell id="15" value="produit" style="whiteSpace=wrap;html=1;aspect=fixed;strokeColor=#000000;strokeWidth=5;fontSize=19;fontColor=#000000;fillColor=none;" vertex="1" parent="1">
                    <mxGeometry x="138" y="723" width="196" height="196" as="geometry"/>
                </mxCell>
                <mxCell id="16" value="produit" style="whiteSpace=wrap;html=1;aspect=fixed;strokeColor=#000000;strokeWidth=5;fontSize=19;fontColor=#000000;fillColor=none;" vertex="1" parent="1">
                    <mxGeometry x="447" y="723" width="196" height="196" as="geometry"/>
                </mxCell>
                <mxCell id="17" value="" style="rounded=0;whiteSpace=wrap;html=1;strokeColor=#000000;strokeWidth=5;fontSize=19;fontColor=#000000;fillColor=none;" vertex="1" parent="1">
                    <mxGeometry x="20" y="940" width="810" height="140" as="geometry"/>
                </mxCell>
                <mxCell id="18" value="footer" style="text;html=1;strokeColor=none;fillColor=none;align=center;verticalAlign=middle;whiteSpace=wrap;rounded=0;strokeWidth=5;fontSize=19;fontColor=#000000;" vertex="1" parent="1">
                    <mxGeometry x="365" y="950" width="60" height="30" as="geometry"/>
                </mxCell>
                <mxCell id="19" value="contact" style="rounded=0;whiteSpace=wrap;html=1;strokeColor=#000000;strokeWidth=5;fontSize=19;fontColor=#000000;fillColor=none;" vertex="1" parent="1">
                    <mxGeometry x="510" y="990" width="120" height="60" as="geometry"/>
                </mxCell>
                <mxCell id="20" value="mention legal" style="rounded=0;whiteSpace=wrap;html=1;strokeColor=#000000;strokeWidth=5;fontSize=19;fontColor=#000000;fillColor=none;" vertex="1" parent="1">
                    <mxGeometry x="180" y="990" width="120" height="60" as="geometry"/>
                </mxCell>
            </root>
        </mxGraphModel>
    </diagram>
</mxfile>